<svg xmlns="http://www.w3.org/2000/svg" width="20" height="20" viewBox="0 0 20 20">
  <defs>
    <linearGradient id="grad_connect" x1="0" y1="0" x2="1" y2="1">
      <stop offset="0%" stop-color="#0F766E"/>
      <stop offset="100%" stop-color="#2DD4BF"/>
    </linearGradient>
  </defs>
  <rect x="1" y="1" width="18" height="18" rx="5" fill="url(#grad_connect)"/>
  <rect x="1" y="1" width="18" height="18" rx="5" fill="none" stroke="#ffffff" stroke-opacity="0.18"/>
  <path d="M4.2 4.2h11.6" stroke="#ffffff" stroke-opacity="0.12" stroke-width="1"/>

  <path d="M7 7.2h2.2M10.8 7.2h2.2M7 12.8h2.2M10.8 12.8h2.2" fill="none" stroke="#ffffff" stroke-width="1.4" stroke-linecap="round"/>
  <path d="M5.2 9.2a2 2 0 0 1 0-4h1.6M14.8 10.8a2 2 0 0 1 0 4h-1.6M6.8 14.8H5.2a2 2 0 0 1 0-4M13.2 5.2h1.6a2 2 0 1 1 0 4" fill="none" stroke="#ffffff" stroke-width="1.4" stroke-linecap="round" stroke-linejoin="round"/>
</svg>
