<svg xmlns="http://www.w3.org/2000/svg" width="20" height="20" viewBox="0 0 20 20">
  <defs>
    <linearGradient id="grad_save_as" x1="0" y1="0" x2="1" y2="1">
      <stop offset="0%" stop-color="#EF4444"/>
      <stop offset="100%" stop-color="#FCA5A5"/>
    </linearGradient>
  </defs>
  <rect x="1" y="1" width="18" height="18" rx="5" fill="url(#grad_save_as)"/>
  <rect x="1" y="1" width="18" height="18" rx="5" fill="none" stroke="#ffffff" stroke-opacity="0.18"/>
  <path d="M4.2 4.2h11.6" stroke="#ffffff" stroke-opacity="0.12" stroke-width="1"/>

  <path d="M6 4.5h7l2 2v9a1 1 0 0 1-1 1H6a1 1 0 0 1-1-1v-10a1 1 0 0 1 1-1Z" fill="none" stroke="#ffffff" stroke-width="1.4" stroke-linejoin="round"/>
  <path d="M8 4.8v4h4v-4" fill="none" stroke="#ffffff" stroke-width="1.3" stroke-linejoin="round"/>
  <circle cx="14.4" cy="14.2" r="2.5" fill="#ffffff" fill-opacity="0.92"/>
  <path d="M14.4 12.9v2.6M13.1 14.2h2.6" fill="none" stroke="#EF4444" stroke-width="1.4" stroke-linecap="round"/>
</svg>
